<svg enable-background="new 70.096 90.635 419.7 130.615" height="130.615" viewBox="70.096 90.635 419.7 130.615" width="419.7" xmlns="http://www.w3.org/2000/svg"><path d="m74.059 163.878c.05 4.172.446 8.313 1.216 12.418.112.595-.086.918-.666 1.068-.897.231-1.789.467-2.685.697-.43.109-.893-.172-.935-.613-.271-2.879-.578-5.756-.774-8.643-.214-3.155-.113-6.313.101-9.469.325-4.701 1.044-9.342 2.176-13.918 1.334-5.384 3.207-10.568 5.65-15.549 2.735-5.579 6.097-10.755 10.134-15.478 6.945-8.124 15.257-14.424 25.084-18.676 4.586-1.98 9.346-3.391 14.271-4.225 4.368-.741 8.771-1 13.201-.78 8.561.42 16.677 2.575 24.413 6.226 4.926 2.324 9.512 5.189 13.829 8.496 3.71 2.843 7.167 5.977 10.401 9.354.146.151.25.315.547.25 2.385-.521 4.882.596 6.243 2.617 2.582 3.832.337 9.012-4.214 9.758-3.923.645-7.464-2.514-7.262-6.497.027-.518.143-1.036.256-1.545.051-.227.035-.376-.135-.542-1.835-1.79-3.622-3.631-5.502-5.368-2.495-2.304-5.176-4.381-7.976-6.304-6.489-4.453-13.495-7.779-21.163-9.634-5.168-1.251-10.407-1.777-15.729-1.537-6.13.274-12.054 1.523-17.784 3.686-4.866 1.831-9.414 4.271-13.671 7.251-4.009 2.807-7.659 6.022-10.956 9.64-5.167 5.673-9.279 12.038-12.34 19.076-2.265 5.202-3.864 10.604-4.795 16.204-.659 3.985-.977 7.996-.935 12.037z" fill="#3ab54a"/><path d="m130.617 221.25c-3.165-.043-6.312-.248-9.447-.664-8.178-1.088-15.913-3.553-23.216-7.389-5.098-2.676-9.792-5.929-14.078-9.775-.374-.328-.717-.7-1.12-.988-.452-.323-.94.035-1.42.035-3.222 0-5.976-2.412-6.301-5.571-.341-3.278 1.755-6.192 4.94-6.878 4.168-.896 7.998 2.52 7.569 6.762-.043.422-.178.834-.231 1.258-.019.147.025.36.126.461 4.021 3.928 8.475 7.285 13.373 10.045 4.779 2.691 9.822 4.738 15.129 6.119 4.757 1.241 9.591 1.928 14.512 2.055 3.425.084 6.841-.067 10.239-.52 6.394-.854 12.53-2.617 18.385-5.332 7.512-3.476 14.119-8.22 19.794-14.24 6.739-7.15 11.595-15.42 14.559-24.793 1.363-4.309 2.242-8.721 2.66-13.222.42-4.537.355-9.074-.167-13.602-.113-.988-.28-1.971-.42-2.956-.062-.43.167-.768.596-.881.919-.243 1.843-.479 2.765-.717.466-.121.887.15.959.621.404 2.7.617 5.419.698 8.147.108 3.507-.06 7.006-.485 10.49-.663 5.438-1.943 10.73-3.856 15.867-2.455 6.59-5.826 12.67-10.11 18.246-3.22 4.191-6.863 7.978-10.94 11.342-5.43 4.488-11.403 8.084-17.916 10.775-3.687 1.52-7.475 2.723-11.363 3.588-3.638.813-7.315 1.348-11.042 1.536-1.398.072-2.795.123-4.192.181z" fill="#3ab54a"/><path d="m77.113 176.973c.319-1.171.628-2.31.94-3.451.334-1.22.683-2.437 1-3.662.078-.301.201-.39.504-.39 3.254.017 6.51.021 9.765.021 7.566.002 15.131 0 22.698-.002 3.073 0 6.15-.004 9.228-.017.597-.005 1.146-.195 1.571-.64.71-.75.558-1.732-.396-2.135-.48-.201-1.044-.275-1.573-.277-7.565-.014-15.134 0-22.7-.014-3.651-.005-7.017-.963-9.978-3.154-2.291-1.697-4.004-3.879-5.222-6.444-1.431-3.023-2.079-6.215-2.033-9.557.05-3.821.958-7.404 3.049-10.628 2.251-3.469 5.398-5.701 9.431-6.679 1.486-.361 2.997-.512 4.521-.512 12.637-.004 25.278-.003 37.917 0h.355c-.067.185-.105.338-.175.473-1.188 2.281-2.385 4.555-3.56 6.84-.138.268-.295.341-.577.341-6.195-.005-12.387-.001-18.584 0-4.53.002-9.062-.001-13.594.007-2.165.004-4.271.311-6.219 1.335-2.766 1.458-4.438 3.779-4.996 6.808-.869 4.701.346 8.864 3.716 12.293 1.878 1.908 4.23 2.82 6.92 2.817 4.186-.002 8.369-.002 12.557-.002 2.964 0 5.929-.045 8.896.014 3.854.078 6.893 2.564 7.658 6.307.66 3.229-.046 6.115-2.571 8.383-1.52 1.361-3.384 1.89-5.395 1.9-3.824.02-7.65.012-11.474.02-3.896.008-7.789.018-11.682.021-6.526.004-13.055 0-19.58 0-.124.001-.247-.007-.417-.016z" fill="#fff"/><path d="m74.155 187.768c.671-2.452 1.326-4.833 1.986-7.244.186-.015.375-.034.563-.034 12.056-.01 24.111-.014 36.168-.021 2.882 0 5.765.039 8.646-.027 3.023-.068 5.68-1.104 7.788-3.341 1.475-1.569 2.376-3.444 2.805-5.55.677-3.299.264-6.453-1.431-9.373-1.715-2.949-4.303-4.698-7.682-5.213-.819-.123-1.654-.164-2.482-.164-7.124.002-14.246 0-21.368.054-3.913.03-6.688-2.61-7.569-6.042-.51-1.988-.417-3.954.445-5.833 1.104-2.405 3.047-3.805 5.57-4.419.84-.203 1.719-.338 2.579-.341 10.008-.021 20.01-.015 30.019-.013.13 0 .267.016.457.024-.105.208-.175.364-.259.518-1.175 2.219-2.357 4.439-3.521 6.668-.146.276-.333.307-.601.307-8.677-.004-17.351-.008-26.024.011-.483 0-.997.105-1.444.288-.611.25-.994.747-.955 1.459.039.69.457 1.146 1.068 1.342.488.155 1.029.205 1.547.207 7.442.011 14.882-.011 22.326.026 1.389.008 2.804.117 4.163.397 5.423 1.111 9.257 4.224 11.41 9.349 1.24 2.963 1.646 6.063 1.417 9.258-.267 3.636-1.301 7.027-3.282 10.1-2.574 3.985-6.143 6.534-10.849 7.367-1.019.182-2.067.23-3.102.23-15.743.015-31.486.011-47.229.011-.356-.001-.712-.001-1.159-.001z" fill="#fff"/><path d="m158.732 187.628c-2.495 0-4.942 0-7.451 0 0-.158 0-.308 0-.453 0-6.611 0-13.221.003-19.832.003-5.473.003-10.944.019-16.421.005-1.338-.041-2.695.121-4.021.326-2.642 1.466-4.992 2.918-7.191 2.056-3.111 4.624-5.718 7.773-7.728 1.666-1.062 3.433-1.889 5.405-2.208.45-.07.906-.124 1.361-.124 4.446-.004 8.895.007 13.344.009 5.502.004 11.002.001 16.504.001h.498c-.231.446-.428.835-.633 1.219-1.038 1.946-2.086 3.884-3.112 5.834-.151.291-.323.38-.642.38-7.539-.014-15.079-.03-22.618-.011-4.349.011-7.806 1.886-10.474 5.256-1.687 2.128-2.635 4.583-2.929 7.282-.054.509-.059 1.024-.059 1.535-.014 12.043-.021 24.086-.03 36.129.002.096.002.194.002.344z" fill="#fff"/><path d="m193.632 140.162c-.547 1.024-1.038 1.947-1.531 2.87-.738 1.388-1.49 2.769-2.212 4.164-.175.337-.38.457-.765.454-5.068-.015-10.142-.009-15.216-.004-1.296 0-2.474.337-3.344 1.362-.765.902-.983 1.995-.983 3.142-.003 11.545 0 23.09.002 34.635v.858c-2.56 0-5.087 0-7.647 0-.005-.127-.019-.247-.019-.366.003-11.753-.046-23.505.035-35.255.027-3.659 1.377-6.901 4.131-9.424 1.935-1.776 4.257-2.525 6.879-2.469 2.633.055 5.265.033 7.898.035 4.061.005 8.122-.001 12.182-.001.159-.002.323-.001.59-.001z" fill="#fff"/><path d="m135.435 137.088c.426-.818.814-1.562 1.202-2.304.886-1.687 1.784-3.367 2.662-5.061.108-.21.229-.303.474-.303 7.645.009 15.294.011 22.939.014.038 0 .07.021.126.038-.032.046-.045.094-.073.103-3.269 1.153-5.815 3.292-8.021 5.892-.334.391-.671.781-.946 1.211-.218.334-.472.42-.852.418-3.449-.012-6.901-.008-10.347-.008-2.234 0-4.462.001-6.693.001-.121-.001-.248-.001-.471-.001z" fill="#fff"/><path d="m129.878 147.733c.369-.734.695-1.385 1.032-2.031.9-1.726 1.811-3.442 2.7-5.172.135-.26.286-.345.574-.345 5.031.008 10.059.005 15.089.005h2.991c-.25.561-.469 1.042-.679 1.522-.811 1.855-1.477 3.751-1.851 5.745-.019.107-.188.23-.313.263-.17.046-.358.012-.536.012-6.152 0-12.306 0-18.458 0-.15.001-.298.001-.549.001z" fill="#fff"/><path d="m244.418 114.089c0-1.725.338-3.366 1.017-4.924.678-1.557 1.65-2.922 2.92-4.098 1.268-1.173 2.81-2.12 4.625-2.839 1.814-.719 3.881-1.078 6.2-1.078 2.23 0 4.231.359 6.003 1.078 1.771.719 3.28 1.726 4.527 3.02 1.247 1.293 2.208 2.815 2.887 4.564.678 1.75 1.017 3.655 1.017 5.715l-9.185.719c0-1.821-.459-3.235-1.378-4.241s-2.209-1.51-3.871-1.51c-1.488 0-2.68.444-3.576 1.33-.897.887-1.345 1.881-1.345 2.983 0 1.103.502 1.941 1.509 2.516 1.005.575 2.263 1.114 3.772 1.618 1.509.503 3.138 1.042 4.888 1.617 1.749.575 3.378 1.391 4.888 2.444 1.509 1.055 2.766 2.444 3.772 4.169 1.005 1.726 1.509 3.954 1.509 6.686 0 1.822-.339 3.535-1.017 5.14-.678 1.606-1.673 3.008-2.985 4.205-1.312 1.198-2.931 2.157-4.854 2.875-1.925.719-4.112 1.078-6.561 1.078-2.362 0-4.484-.359-6.364-1.078-1.881-.719-3.467-1.736-4.756-3.055-1.291-1.317-2.275-2.875-2.952-4.672-.679-1.797-1.017-3.774-1.017-5.931l9.185-.719c0 4.074 1.968 6.11 5.905 6.11 1.837 0 3.225-.467 4.166-1.402.94-.935 1.41-2.024 1.41-3.271 0-1.15-.503-2.036-1.509-2.66-1.007-.622-2.263-1.197-3.772-1.725-1.509-.527-3.139-1.078-4.888-1.653-1.75-.575-3.379-1.377-4.888-2.408-1.509-1.03-2.767-2.383-3.772-4.062-1.008-1.676-1.51-3.856-1.51-6.541z" fill="#fff"/><path d="m292.967 113.011c1.793 0 3.455.336 4.986 1.006 1.53.672 2.854 1.618 3.969 2.839 1.115 1.222 1.979 2.672 2.591 4.349.612 1.678.918 3.499.918 5.463v20.127h-6.561l-1.313-3.235c-.744.672-1.574 1.271-2.494 1.797-.787.479-1.717.898-2.789 1.258-1.071.359-2.263.539-3.575.539-3.28 0-5.796-.874-7.545-2.624-1.75-1.749-2.624-3.99-2.624-6.721 0-1.629.295-3.127.886-4.493.59-1.366 1.585-2.539 2.985-3.522 1.398-.982 3.248-1.749 5.543-2.3 2.297-.55 5.173-.827 8.628-.827 0-1.629-.372-2.875-1.115-3.738-.744-.862-1.685-1.294-2.821-1.294-.832 0-1.499.18-2.001.54-.503.359-.907.731-1.214 1.114-.352.48-.59 1.007-.722 1.582l-8.857-.719c.263-1.628.722-3.127 1.378-4.493s1.52-2.54 2.592-3.522c1.07-.98 2.371-1.749 3.903-2.3 1.534-.549 3.284-.826 5.252-.826zm-1.968 26.957c1.662 0 3.007-.563 4.035-1.689 1.027-1.125 1.542-2.599 1.542-4.421v-1.438c-1.882 0-3.423.108-4.625.324-1.203.215-2.144.516-2.821.898-.679.384-1.138.839-1.378 1.366-.241.528-.36 1.103-.36 1.725 0 .911.316 1.678.95 2.3.634.624 1.518.935 2.657.935z" fill="#fff"/><path d="m311.664 104.745c0-1.438.492-2.696 1.477-3.774.983-1.078 2.133-1.617 3.444-1.617s2.46.539 3.444 1.617c.983 1.078 1.476 2.336 1.476 3.774s-.491 2.696-1.476 3.774-2.133 1.617-3.444 1.617c-1.313 0-2.461-.539-3.444-1.617-.985-1.079-1.477-2.337-1.477-3.774zm9.186 42.052h-8.856v-33.067h8.856z" fill="#fff"/><path d="m344.796 113.371c1.793 0 3.435.324 4.921.971s2.767 1.582 3.838 2.803c1.071 1.222 1.903 2.696 2.493 4.421.591 1.725.886 3.666.886 5.823v19.409h-8.855v-17.612c0-2.156-.516-3.833-1.542-5.032-1.028-1.197-2.373-1.797-4.035-1.797-1.663 0-3.008.6-4.035 1.797-1.026 1.198-1.541 2.875-1.541 5.032v17.612h-8.856v-33.068h6.561l1.313 3.235c.698-.67 1.509-1.269 2.428-1.797.787-.432 1.727-.838 2.82-1.222 1.088-.383 2.292-.575 3.604-.575z" fill="#fff"/><path d="m365.789 122.716h-4.592v-8.267h2.296c2.405 0 3.607-1.318 3.607-3.954v-4.672h7.546v7.907h6.231v8.986h-6.231v10.783c0 1.438.37 2.576 1.114 3.414.743.839 1.685 1.258 2.821 1.258.35 0 .656-.011.918-.036.263-.023.503-.06.722-.108.22-.047.438-.119.656-.215v8.626c-.351.144-.744.264-1.181.359-.876.239-1.902.359-3.084.359-3.455 0-6.124-1.042-8.004-3.127-1.882-2.084-2.821-5.115-2.821-9.093z" fill="#fff"/><path d="m387.111 104.745c0-1.438.492-2.696 1.477-3.774.983-1.078 2.132-1.617 3.444-1.617s2.46.539 3.443 1.617c.984 1.078 1.477 2.336 1.477 3.774s-.491 2.696-1.477 3.774c-.984 1.078-2.133 1.617-3.443 1.617-1.313 0-2.461-.539-3.444-1.617-.984-1.079-1.477-2.337-1.477-3.774zm9.186 42.052h-8.856v-33.067h8.856z" fill="#fff"/><path d="m416.634 113.011c1.793 0 3.455.336 4.986 1.006 1.531.672 2.854 1.618 3.97 2.839 1.115 1.222 1.979 2.672 2.591 4.349.612 1.678.919 3.499.919 5.463v20.127h-6.561l-1.313-3.235c-.743.672-1.573 1.271-2.492 1.797-.787.479-1.718.898-2.788 1.258-1.072.359-2.265.539-3.575.539-3.28 0-5.796-.874-7.545-2.624-1.75-1.749-2.625-3.99-2.625-6.721 0-1.629.296-3.127.886-4.493.591-1.366 1.585-2.539 2.985-3.522 1.398-.982 3.248-1.749 5.544-2.3 2.296-.55 5.172-.827 8.627-.827 0-1.629-.372-2.875-1.115-3.738-.744-.862-1.684-1.294-2.82-1.294-.832 0-1.499.18-2.001.54-.504.359-.909.731-1.214 1.114-.351.48-.591 1.007-.722 1.582l-8.857-.719c.264-1.628.723-3.127 1.378-4.493.656-1.366 1.521-2.54 2.593-3.522 1.07-.98 2.372-1.749 3.902-2.3 1.529-.549 3.279-.826 5.247-.826zm-1.968 26.957c1.662 0 3.007-.563 4.035-1.689 1.027-1.125 1.541-2.599 1.541-4.421v-1.438c-1.881 0-3.423.108-4.625.324-1.203.215-2.145.516-2.821.898-.679.384-1.138.839-1.377 1.366-.241.528-.361 1.103-.361 1.725 0 .911.316 1.678.951 2.3.634.624 1.519.935 2.657.935z" fill="#fff"/><path d="m452.063 113.371c1.793 0 3.434.324 4.921.971 1.485.647 2.766 1.582 3.838 2.803 1.07 1.222 1.902 2.696 2.493 4.421s.886 3.666.886 5.823v19.409h-8.856v-17.612c0-2.156-.515-3.833-1.542-5.032-1.027-1.197-2.373-1.797-4.035-1.797-1.663 0-3.008.6-4.034 1.797-1.027 1.198-1.541 2.875-1.541 5.032v17.612h-8.857v-33.068h6.561l1.313 3.235c.699-.67 1.509-1.269 2.428-1.797.787-.432 1.728-.838 2.82-1.222 1.088-.383 2.292-.575 3.605-.575z" fill="#fff"/><path d="m473.055 122.716h-4.592v-8.267h2.296c2.405 0 3.608-1.318 3.608-3.954v-4.672h7.545v7.907h6.231v8.986h-6.231v10.783c0 1.438.371 2.576 1.115 3.414.742.839 1.684 1.258 2.82 1.258.351 0 .656-.011.918-.036.264-.023.503-.06.723-.108.219-.047.438-.119.655-.215v8.626c-.351.144-.743.264-1.181.359-.876.239-1.902.359-3.084.359-3.455 0-6.124-1.042-8.004-3.127-1.881-2.084-2.821-5.115-2.821-9.093z" fill="#fff"/><path d="m244.664 155.228h22.782v5.561h-8.602v24.896h-5.579v-24.896h-8.602z" fill="#3ab54a"/><path d="m287.345 178.917c-.279.838-.705 1.676-1.279 2.515-.573.838-1.271 1.587-2.092 2.248-.822.659-1.752 1.2-2.79 1.618-1.039.418-2.162.629-3.371.629-1.458 0-2.829-.297-4.115-.895-1.287-.597-2.417-1.41-3.395-2.441-.977-1.03-1.751-2.23-2.325-3.602-.574-1.369-.86-2.845-.86-4.424s.286-3.054.86-4.424c.573-1.369 1.348-2.57 2.325-3.602.978-1.031 2.107-1.846 3.395-2.441 1.286-.596 2.657-.895 4.115-.895 1.395 0 2.712.273 3.952.821 1.239.548 2.325 1.322 3.253 2.321.931 1 1.666 2.199 2.209 3.602.541 1.402.813 2.941.813 4.617 0 .258-.016.508-.046.749-.031.242-.063.476-.093.701-.031.259-.063.5-.094.726h-14.877c.248 1.096.774 2.016 1.581 2.756.806.742 1.906 1.111 3.301 1.111.713 0 1.309-.08 1.79-.242.48-.16.891-.354 1.232-.58.372-.256.682-.547.93-.869h5.581zm-9.531-10.394c-1.395 0-2.534.419-3.417 1.258-.883.838-1.449 1.868-1.697 3.094h10.229c-.248-1.226-.813-2.256-1.697-3.094-.884-.839-2.023-1.258-3.418-1.258z" fill="#3ab54a"/><path d="m310.499 177.466c-.249 1.097-.667 2.152-1.256 3.168-.589 1.015-1.317 1.918-2.186 2.707s-1.859 1.418-2.976 1.886c-1.116.467-2.311.7-3.58.7-1.458 0-2.829-.297-4.115-.895-1.286-.597-2.417-1.41-3.394-2.441-.977-1.03-1.751-2.23-2.325-3.602-.574-1.369-.86-2.845-.86-4.424s.286-3.054.86-4.424c.573-1.369 1.349-2.57 2.325-3.602s2.107-1.846 3.394-2.441 2.657-.895 4.115-.895c1.271 0 2.464.233 3.58.701 1.116.467 2.107 1.096 2.976 1.885.867.789 1.597 1.691 2.186 2.707.589 1.017 1.007 2.071 1.256 3.166h-5.347c-.249-.58-.59-1.095-1.023-1.547-.372-.387-.853-.748-1.441-1.088-.589-.338-1.317-.507-2.185-.507-1.519 0-2.79.548-3.813 1.644s-1.534 2.563-1.534 4.399.511 3.304 1.534 4.399c1.022 1.095 2.293 1.644 3.813 1.644.867 0 1.596-.161 2.185-.483s1.069-.676 1.441-1.063c.434-.451.774-.982 1.023-1.596h5.347z" fill="#3ab54a"/><path d="m324.587 163.205c1.146 0 2.224.219 3.231.653 1.007.435 1.866 1.063 2.58 1.886.713.821 1.277 1.813 1.696 2.973.418 1.16.628 2.466.628 3.916v13.054h-5.348v-12.328c0-1.45-.411-2.618-1.231-3.505-.821-.887-1.883-1.329-3.185-1.329-1.303 0-2.364.442-3.186 1.329s-1.231 2.055-1.231 3.505v12.328h-5.347v-30.458h5.347v10.395c.402-.451.883-.854 1.441-1.209.495-.289 1.122-.563 1.883-.822.761-.26 1.667-.388 2.722-.388z" fill="#3ab54a"/><path d="m347.508 163.205c1.271 0 2.434.219 3.487.653 1.053.435 1.96 1.063 2.72 1.886.759.821 1.348 1.813 1.768 2.973.418 1.16.628 2.466.628 3.916v13.054h-5.349v-12.328c0-1.45-.411-2.618-1.23-3.505-.822-.887-1.883-1.329-3.186-1.329s-2.363.442-3.186 1.329c-.821.887-1.231 2.055-1.231 3.505v12.328h-5.347v-22.239h3.951l.931 2.176c.526-.451 1.101-.854 1.72-1.209.526-.289 1.154-.563 1.884-.822.727-.26 1.54-.388 2.44-.388z" fill="#3ab54a"/><path d="m380.192 174.566c0 1.579-.287 3.055-.86 4.424-.574 1.37-1.349 2.57-2.325 3.602-.976 1.031-2.106 1.846-3.394 2.441s-2.658.895-4.114.895c-1.458 0-2.829-.297-4.115-.895-1.286-.597-2.418-1.41-3.394-2.441-.978-1.03-1.752-2.23-2.325-3.602-.574-1.369-.86-2.845-.86-4.424s.286-3.055.86-4.424c.573-1.369 1.349-2.57 2.325-3.602.976-1.031 2.106-1.846 3.394-2.441 1.286-.596 2.657-.895 4.115-.895 1.456 0 2.828.297 4.114.895 1.286.597 2.418 1.41 3.394 2.441.978 1.031 1.751 2.231 2.325 3.602.573 1.371.86 2.845.86 4.424zm-16.041 0c0 1.837.512 3.305 1.534 4.398 1.022 1.097 2.293 1.645 3.813 1.645 1.518 0 2.789-.548 3.813-1.645 1.021-1.096 1.533-2.563 1.533-4.398s-.512-3.305-1.533-4.398c-1.023-1.097-2.296-1.645-3.813-1.645-1.521 0-2.79.548-3.813 1.645-1.022 1.095-1.534 2.561-1.534 4.398z" fill="#3ab54a"/><path d="m388.468 185.686h-5.347v-30.458h5.347z" fill="#3ab54a"/><path d="m412.784 174.566c0 1.579-.287 3.055-.86 4.424-.574 1.37-1.349 2.57-2.325 3.602-.976 1.031-2.106 1.846-3.394 2.441s-2.658.895-4.114.895c-1.458 0-2.829-.297-4.115-.895-1.285-.597-2.418-1.41-3.394-2.441-.977-1.03-1.752-2.23-2.325-3.602-.574-1.369-.86-2.845-.86-4.424s.286-3.055.86-4.424c.573-1.369 1.349-2.57 2.325-3.602.976-1.031 2.107-1.846 3.394-2.441s2.657-.895 4.115-.895c1.456 0 2.828.297 4.114.895 1.286.597 2.418 1.41 3.394 2.441.978 1.031 1.751 2.231 2.325 3.602.573 1.371.86 2.845.86 4.424zm-16.041 0c0 1.837.512 3.305 1.535 4.398 1.021 1.097 2.293 1.645 3.813 1.645 1.519 0 2.789-.548 3.813-1.645 1.021-1.096 1.533-2.563 1.533-4.398s-.512-3.305-1.533-4.398c-1.023-1.097-2.295-1.645-3.813-1.645-1.52 0-2.79.548-3.813 1.645-1.023 1.095-1.535 2.561-1.535 4.398z" fill="#3ab54a"/><path d="m424.313 163.205c.932 0 1.768.129 2.512.387.744.259 1.379.533 1.906.822.589.355 1.131.758 1.628 1.209l.93-2.176h3.952v20.789c0 2.9-.893 5.237-2.674 7.01-1.782 1.773-4.302 2.66-7.557 2.66-1.982 0-3.588-.371-4.812-1.113-1.226-.74-2.193-1.578-2.906-2.514-.806-1.063-1.41-2.271-1.813-3.626h5.349c.216.419.511.789.883 1.112.341.257.774.499 1.302.725.528.227 1.193.34 1.999.34 1.52 0 2.712-.429 3.58-1.281.868-.854 1.302-1.959 1.302-3.313v-1.691c-.434.451-.93.854-1.486 1.209-.496.322-1.085.604-1.768.846s-1.457.361-2.325.361c-1.333 0-2.596-.272-3.788-.82-1.193-.549-2.231-1.307-3.115-2.271-.883-.968-1.58-2.111-2.092-3.434-.513-1.32-.769-2.771-.769-4.352s.256-3.028.769-4.352c.512-1.32 1.209-2.465 2.092-3.432.884-.967 1.922-1.725 3.115-2.272 1.191-.549 2.453-.823 3.786-.823zm-4.417 10.878c0 .772.132 1.498.396 2.174.263.679.628 1.267 1.093 1.766.465.5 1.007.895 1.627 1.186.62.289 1.286.436 1.999.436.683 0 1.333-.146 1.953-.436.62-.291 1.162-.686 1.627-1.186.466-.499.837-1.087 1.116-1.766.279-.676.419-1.4.419-2.174s-.14-1.5-.419-2.176c-.279-.678-.65-1.266-1.116-1.766-.465-.499-1.007-.895-1.627-1.186-.62-.289-1.271-.435-1.953-.435-.713 0-1.379.146-1.999.435-.62.291-1.162.687-1.627 1.186-.465.5-.83 1.088-1.093 1.766-.264.676-.396 1.403-.396 2.176z" fill="#3ab54a"/><path d="m442.12 160.546c-.808 0-1.511-.314-2.115-.943s-.907-1.361-.907-2.2c0-.838.304-1.571.907-2.2.604-.629 1.31-.943 2.115-.943s1.511.314 2.115.943c.604.628.906 1.362.906 2.2 0 .839-.303 1.571-.906 2.2-.604.629-1.309.943-2.115.943zm2.558 25.14h-5.347v-22.239h5.347z" fill="#3ab54a"/><path d="m467.831 178.917c-.278.838-.705 1.676-1.278 2.515-.572.838-1.271 1.587-2.092 2.248-.822.659-1.752 1.2-2.79 1.618-1.039.418-2.162.629-3.37.629-1.458 0-2.829-.297-4.115-.895-1.285-.597-2.418-1.41-3.394-2.441-.978-1.03-1.752-2.23-2.325-3.602-.574-1.369-.859-2.845-.859-4.424s.285-3.054.859-4.424c.573-1.369 1.35-2.57 2.325-3.602s2.106-1.846 3.394-2.441c1.286-.596 2.657-.895 4.115-.895 1.396 0 2.711.273 3.951.821 1.239.548 2.325 1.322 3.255 2.321.93 1 1.666 2.199 2.208 3.602s.814 2.941.814 4.617c0 .258-.018.508-.047.749-.031.242-.063.476-.094.701-.03.259-.063.5-.093.726h-14.879c.248 1.096.774 2.016 1.581 2.756.806.742 1.906 1.111 3.302 1.111.712 0 1.31-.08 1.789-.242.48-.16.892-.354 1.232-.58.372-.256.682-.547.93-.869h5.581zm-9.53-10.394c-1.396 0-2.534.419-3.418 1.258-.883.838-1.449 1.868-1.697 3.094h10.229c-.249-1.226-.814-2.256-1.697-3.094-.884-.839-2.023-1.258-3.417-1.258z" fill="#3ab54a"/><path d="m475.409 178.675c.124.742.465 1.371 1.022 1.886.559.517 1.303.774 2.231.774s1.666-.25 2.208-.75.813-1.055.813-1.668c0-.516-.271-.918-.813-1.209-.542-.289-1.217-.557-2.022-.797-.806-.242-1.682-.492-2.626-.75-.945-.258-1.82-.637-2.627-1.137-.807-.499-1.479-1.145-2.021-1.934-.543-.789-.814-1.83-.814-3.118 0-.902.18-1.765.535-2.587.355-.821.875-1.538 1.559-2.15.682-.611 1.486-1.104 2.418-1.475.93-.37 1.981-.557 3.16-.557 2.572 0 4.55.646 5.929 1.935 1.379 1.288 2.191 2.901 2.44 4.834h-5.113c-.125-.483-.459-.968-1-1.45-.543-.482-1.218-.727-2.022-.727-.807 0-1.434.211-1.883.629-.45.42-.675.936-.675 1.548 0 .517.271.918.813 1.208.542.289 1.216.557 2.022.798.806.242 1.681.5 2.627.772.943.274 1.819.67 2.627 1.186.806.518 1.479 1.186 2.021 2.007s.813 1.894.813 3.216c0 .901-.188 1.764-.56 2.586-.371.821-.897 1.539-1.58 2.15-.683.613-1.512 1.104-2.486 1.475-.978.371-2.069.557-3.278.557-2.789 0-4.905-.66-6.347-1.981-1.44-1.321-2.271-3.077-2.487-5.271z" fill="#3ab54a"/><g fill="#fff"><path d="m247.596 214.865h-2.354v-12.902h2.354z"/><path d="m262.017 201.962v12.902h-2.06l-5.494-8.396v8.396h-2.354v-12.902h2.06l5.493 8.396v-8.396z"/><path d="m268.883 204.317v3.175h4.807v2.354h-4.807v5.019h-2.354v-12.902h8.24v2.354z"/><path d="m283.304 212.611c.785 0 1.406-.238 1.864-.717s.687-1.126.687-1.945v-7.986h2.354v7.986c0 .725-.121 1.391-.362 1.997-.242.606-.582 1.136-1.021 1.587-.438.45-.958.803-1.561 1.055-.602.254-1.256.379-1.962.379s-1.36-.125-1.962-.379c-.602-.252-1.122-.604-1.56-1.055s-.778-.979-1.021-1.587-.363-1.272-.363-1.997v-7.986h2.354v7.986c0 .819.229 1.469.687 1.945.459.479 1.081.717 1.866.717z"/><path d="m292.132 205.566c0-.49.102-.963.305-1.413s.49-.843.862-1.178c.373-.334.824-.604 1.354-.81.529-.205 1.128-.308 1.795-.308.615 0 1.174.103 1.677.308s.938.492 1.305.859c.366.369.647.803.845 1.301.195.5.294 1.041.294 1.629h-2.256c0-.574-.164-1.023-.49-1.353-.327-.327-.785-.491-1.374-.491-.59 0-1.047.15-1.374.45-.327.301-.49.629-.49.983 0 .383.157.676.472.881.313.203.707.389 1.176.553.471.164.984.335 1.541.512.556.178 1.068.418 1.54.717.471.301.862.693 1.177 1.178.313.486.471 1.117.471 1.896 0 .464-.108.915-.324 1.353-.215.438-.52.828-.912 1.178-.393.348-.866.628-1.422.84s-1.174.316-1.854.316c-.693 0-1.313-.103-1.854-.307-.544-.205-1.005-.494-1.384-.871-.379-.375-.67-.818-.873-1.33-.202-.513-.304-1.076-.304-1.689h2.354c0 .572.184 1.041.549 1.402.367.361.871.543 1.512.543.693 0 1.209-.153 1.55-.461.34-.308.51-.666.51-1.076 0-.395-.156-.702-.471-.922-.314-.217-.707-.412-1.177-.582-.471-.172-.984-.338-1.54-.502s-1.069-.391-1.541-.676c-.472-.287-.863-.66-1.177-1.117s-.472-1.062-.472-1.813z"/><path d="m307.141 214.865h-2.354v-12.902h2.354z"/><path d="m321.561 201.962v12.902h-2.06l-5.493-8.396v8.396h-2.354v-12.902h2.06l5.494 8.396v-8.396z"/><path d="m327.741 208.414c0 .613.098 1.178.294 1.688s.458.956.785 1.331c.326.376.709.666 1.146.871.438.203.905.307 1.402.307.615 0 1.125-.119 1.53-.357.404-.238.727-.51.962-.81.273-.354.489-.751.646-1.188h-3.236v-2.149h5.786v6.759h-1.667l-.49-1.229c-.287.259-.607.484-.961.676-.302.164-.667.314-1.1.449-.432.138-.922.205-1.472.205-.812 0-1.579-.166-2.305-.502-.728-.334-1.36-.799-1.903-1.393s-.975-1.287-1.295-2.078-.48-1.652-.48-2.58c0-.916.16-1.771.48-2.57s.752-1.495 1.295-2.09c.543-.594 1.177-1.058 1.903-1.393s1.493-.502 2.305-.502c.706 0 1.364.127 1.972.379.608.254 1.148.588 1.619 1.004s.869.904 1.196 1.465.563 1.146.707 1.762h-2.453c-.078-.287-.203-.563-.372-.83-.171-.266-.383-.506-.638-.717-.257-.211-.554-.383-.895-.512-.34-.131-.719-.195-1.138-.195-.497 0-.965.104-1.402.308-.438.205-.821.495-1.146.871-.327.375-.59.819-.785 1.331-.194.511-.29 1.073-.29 1.689z"/><path d="m350.107 214.865h-2.354v-12.902h2.354z"/><path d="m364.526 201.962v12.902h-2.061l-5.493-8.396v8.396h-2.354v-12.902h2.06l5.494 8.396v-8.396z"/><path d="m368.058 201.962h9.614v2.354h-3.63v10.548h-2.354v-10.548h-3.63z"/><path d="m389.934 212.509v2.355h-8.729v-12.902h8.534v2.354h-6.181v2.765h5.689v2.355h-5.689v3.07h6.376z"/><path d="m401.999 212.509v2.355h-8.142v-12.902h2.354v10.547z"/><path d="m413.673 212.509v2.355h-8.142v-12.902h2.354v10.547z"/><path d="m419.56 214.865h-2.354v-12.902h2.354z"/><path d="m425.739 208.414c0 .613.098 1.178.294 1.688.195.511.458.956.785 1.331.326.376.709.666 1.146.871.438.203.905.307 1.402.307.615 0 1.125-.119 1.53-.357.404-.238.727-.51.962-.81.273-.354.489-.751.646-1.188h-3.236v-2.149h5.786v6.759h-1.667l-.49-1.229c-.287.259-.607.484-.961.676-.302.164-.668.314-1.1.449-.432.138-.922.205-1.472.205-.812 0-1.579-.166-2.306-.502-.727-.334-1.359-.799-1.902-1.393s-.976-1.287-1.295-2.078c-.32-.791-.48-1.652-.48-2.58 0-.916.16-1.771.48-2.57.319-.799.752-1.495 1.295-2.09.543-.594 1.177-1.058 1.902-1.393.727-.335 1.494-.502 2.306-.502.706 0 1.364.127 1.972.379.608.254 1.148.588 1.619 1.004s.869.904 1.196 1.465.563 1.146.707 1.762h-2.453c-.078-.287-.203-.563-.372-.83-.171-.266-.383-.506-.638-.717-.257-.211-.554-.383-.895-.512-.34-.131-.719-.195-1.138-.195-.497 0-.965.104-1.402.308-.438.205-.821.495-1.146.871-.327.375-.59.819-.785 1.331-.194.511-.29 1.073-.29 1.689z"/><path d="m448.104 212.509v2.355h-8.729v-12.902h8.534v2.354h-6.18v2.765h5.688v2.355h-5.688v3.07h6.375z"/><path d="m461.938 201.962v12.902h-2.061l-5.493-8.396v8.396h-2.354v-12.902h2.06l5.494 8.396v-8.396z"/><path d="m468.117 208.414c0 .613.098 1.178.294 1.688s.458.956.785 1.331c.325.376.709.666 1.146.871.438.203.905.307 1.402.307.419 0 .798-.064 1.138-.193.341-.131.646-.301.913-.512.269-.213.49-.451.667-.718s.316-.543.422-.83h2.452c-.145.614-.38 1.202-.706 1.763-.327.56-.729 1.047-1.207 1.463-.478.418-1.025.752-1.646 1.004-.622.254-1.299.379-2.031.379-.812 0-1.579-.166-2.305-.502-.728-.334-1.36-.799-1.903-1.393s-.976-1.287-1.295-2.078c-.32-.791-.48-1.652-.48-2.58 0-.916.16-1.771.48-2.57.319-.799.752-1.495 1.295-2.09.543-.594 1.177-1.058 1.903-1.393s1.493-.502 2.305-.502c.706 0 1.364.127 1.972.379.608.254 1.148.588 1.619 1.004s.869.904 1.196 1.465.563 1.146.707 1.762h-2.453c-.078-.287-.203-.563-.372-.83-.171-.266-.383-.506-.638-.717-.256-.211-.554-.383-.895-.512-.34-.131-.719-.195-1.138-.195-.497 0-.965.104-1.402.308-.438.205-.821.495-1.146.871-.327.375-.589.819-.785 1.331s-.294 1.073-.294 1.689z"/><path d="m489.796 212.509v2.355h-8.729v-12.902h8.533v2.354h-6.18v2.765h5.689v2.355h-5.689v3.07h6.376z"/></g><path d="m225.485 90.635v130.615" fill="none" stroke="#fff" stroke-miterlimit="10" stroke-width="2"/></svg>